<svg width="130" height="23" fill="none" xmlns="http://www.w3.org/2000/svg"><path d="M3.768 23H.92V8.92c0-2.304.736-4.267 2.208-5.888C4.621 1.411 6.541.6 8.888.6h7.328V23h-3.008V3.416h-4.32c-1.557 0-2.805.459-3.744 1.376-.917.917-1.376 2.379-1.376 4.384v2.72c1.195-1.259 2.901-1.888 5.12-1.888H11.8v2.816H8.888c-1.237 0-2.25.15-3.04.448-.768.299-1.461.81-2.08 1.536V23ZM23.525 23h-2.976V7.736c0-2.197.704-3.99 2.112-5.376C24.09.973 25.85.28 27.94.28c2.304 0 4.032.587 5.184 1.76 1.173 1.152 1.76 2.57 1.76 4.256 0 2.155-1.003 3.701-3.008 4.64v.128c2.752.79 4.128 2.699 4.128 5.728 0 4.139-2.443 6.208-7.328 6.208h-4v-2.816h3.968c1.472 0 2.55-.299 3.232-.896.682-.597 1.024-1.557 1.024-2.88 0-1.152-.374-2.037-1.12-2.656-.726-.619-1.718-.928-2.976-.928h-3.168v-2.656h2.048c1.152 0 2.133-.31 2.944-.928.832-.64 1.248-1.493 1.248-2.56 0-1.024-.32-1.877-.96-2.56-.619-.683-1.632-1.024-3.04-1.024-1.28 0-2.326.405-3.136 1.216-.81.79-1.216 1.952-1.216 3.488V23ZM39.358 11.8c.02-3.563 1.002-6.315 2.944-8.256C44.264 1.581 46.962.6 50.397.6h2.08v2.816h-2.465c-2.367 0-4.191.79-5.471 2.368-1.26 1.557-1.91 3.563-1.953 6.016.043 2.453.694 4.47 1.953 6.048 1.28 1.557 3.103 2.336 5.471 2.336h2.465V23h-2.08c-3.435 0-6.134-.97-8.097-2.912-1.94-1.963-2.922-4.725-2.944-8.288ZM59.018 23H56.17V8.92c0-2.304.736-4.267 2.208-5.888C59.871 1.411 61.791.6 64.138.6h7.328V23h-3.008V3.416h-4.32c-1.557 0-2.805.459-3.744 1.376-.917.917-1.376 2.379-1.376 4.384v2.72c1.195-1.259 2.901-1.888 5.12-1.888h2.912v2.816h-2.912c-1.237 0-2.25.15-3.04.448-.768.299-1.461.81-2.08 1.536V23ZM78.967 23h-3.008V.6h7.904c2.645 0 4.618.597 5.92 1.792 1.301 1.173 1.952 3.03 1.952 5.568V23h-3.008V7.544c0-1.45-.448-2.496-1.344-3.136-.875-.661-2.038-.992-3.488-.992h-4.928V23ZM111.445 11.8c-.022 3.563-1.014 6.325-2.977 8.288-1.941 1.941-4.629 2.912-8.063 2.912h-4.353V.6h4.353c3.434 0 6.122.981 8.063 2.944 1.963 1.941 2.955 4.693 2.977 8.256Zm-10.657 8.384c2.368 0 4.182-.779 5.441-2.336 1.28-1.579 1.941-3.595 1.984-6.048-.043-2.453-.704-4.459-1.984-6.016-1.259-1.579-3.073-2.368-5.441-2.368h-1.727v16.768h1.727ZM129.311.6v1.6c0 2.603-.491 4.992-1.472 7.168-.96 2.155-2.368 3.797-4.224 4.928V23h-3.008v-8.64c-1.856-1.11-3.285-2.72-4.288-4.832-1.003-2.133-1.504-4.48-1.504-7.04V.6h3.072v1.6c0 2.197.309 4.085.928 5.664.64 1.557 1.739 2.837 3.296 3.84 2.795-1.856 4.192-5.024 4.192-9.504V.6h3.008Z" fill="#2C2347"/></svg>